<?xml version="1.0" standalone="no"?>
<!DOCTYPE svg PUBLIC "-//W3C//DTD SVG 20010904//EN"
 "http://www.w3.org/TR/2001/REC-SVG-20010904/DTD/svg10.dtd">
<svg version="1.0" xmlns="http://www.w3.org/2000/svg"
 width="225.000000pt" height="225.000000pt" viewBox="0 0 225.000000 225.000000"
 preserveAspectRatio="xMidYMid meet">

<g transform="translate(0.000000,225.000000) scale(0.100000,-0.100000)"
fill="#000000" stroke="none">
<path d="M476 2235 c-57 -20 -87 -45 -113 -95 l-23 -43 0 -972 0 -972 23 -44
c16 -29 40 -54 72 -74 l48 -30 642 0 642 0 48 30 c32 20 56 45 72 74 l23 44 0
972 0 972 -23 44 c-16 29 -40 54 -72 74 l-48 30 -626 2 c-520 2 -633 0 -665
-12z m1304 -100 c51 -45 50 -18 50 -1010 0 -992 1 -965 -50 -1010 -22 -20 -36
-20 -655 -20 l-633 0 -26 24 c-15 14 -31 41 -37 60 -6 24 -9 349 -7 968 3 928
3 932 24 960 41 55 21 53 690 50 606 -2 622 -3 644 -22z"/>
<path d="M540 1960 l0 -80 85 0 85 0 0 80 0 80 -85 0 -85 0 0 -80z"/>
<path d="M880 1960 l0 -80 80 0 80 0 0 80 0 80 -80 0 -80 0 0 -80z"/>
<path d="M1210 1960 l0 -80 80 0 80 0 0 80 0 80 -80 0 -80 0 0 -80z"/>
<path d="M1540 1960 l0 -80 85 0 85 0 0 80 0 80 -85 0 -85 0 0 -80z"/>
<path d="M710 1790 l0 -80 -85 0 -85 0 0 -85 0 -86 83 3 82 3 3 83 3 82 79 0
80 0 0 80 0 80 -80 0 -80 0 0 -80z"/>
<path d="M1040 1790 l0 -80 -80 0 -80 0 0 -85 0 -85 80 0 80 0 0 -80 0 -80 85
0 85 0 0 80 0 80 80 0 80 0 0 85 0 85 -80 0 -80 0 0 80 0 80 -85 0 -85 0 0
-80z m170 -165 l0 -85 -85 0 -85 0 0 85 0 85 85 0 85 0 0 -85z"/>
<path d="M1380 1790 l0 -80 80 0 79 0 3 -82 3 -83 83 -3 82 -3 0 86 0 85 -85
0 -85 0 0 80 0 80 -80 0 -80 0 0 -80z"/>
<path d="M710 1460 l0 -80 80 0 80 0 0 80 0 80 -80 0 -80 0 0 -80z"/>
<path d="M1380 1460 l0 -80 80 0 80 0 0 80 0 80 -80 0 -80 0 0 -80z"/>
<path d="M540 1290 l0 -80 85 0 85 0 0 -85 0 -85 -85 0 -85 0 0 -80 0 -80 85
0 85 0 0 80 0 80 80 0 80 0 0 85 0 85 -80 0 -80 0 0 80 0 80 -85 0 -85 0 0
-80z"/>
<path d="M880 1290 l0 -80 80 0 80 0 0 -85 0 -85 -80 0 -80 0 0 -80 0 -80 80
0 80 0 0 80 0 80 85 0 85 0 0 -80 0 -80 80 0 80 0 0 80 0 80 -80 0 -80 0 0 85
0 85 80 0 80 0 0 80 0 80 -80 0 -80 0 0 -80 0 -80 -85 0 -85 0 0 80 0 80 -80
0 -80 0 0 -80z"/>
<path d="M1540 1290 l0 -80 -80 0 -80 0 0 -85 0 -85 80 0 80 0 0 -80 0 -80 85
0 85 0 0 80 0 80 -85 0 -85 0 0 85 0 85 85 0 85 0 0 80 0 80 -85 0 -85 0 0
-80z"/>
<path d="M710 790 l0 -80 80 0 80 0 0 80 0 80 -80 0 -80 0 0 -80z"/>
<path d="M1040 790 l0 -80 -80 0 -80 0 0 -85 0 -85 80 0 80 0 0 -80 0 -80 85
0 85 0 0 80 0 80 80 0 80 0 0 85 0 85 -80 0 -80 0 0 80 0 80 -85 0 -85 0 0
-80z m170 -165 l0 -85 -85 0 -85 0 0 85 0 85 85 0 85 0 0 -85z"/>
<path d="M1380 790 l0 -80 80 0 80 0 0 80 0 80 -80 0 -80 0 0 -80z"/>
<path d="M540 625 l0 -85 85 0 85 0 0 -80 0 -80 80 0 80 0 0 80 0 80 -80 0
-79 0 -3 83 -3 82 -82 3 -83 3 0 -86z"/>
<path d="M1547 703 c-4 -3 -7 -42 -7 -85 l0 -78 -80 0 -80 0 0 -80 0 -80 80 0
80 0 0 80 0 80 85 0 85 0 0 85 0 85 -78 0 c-43 0 -82 -3 -85 -7z"/>
<path d="M540 290 l0 -80 85 0 85 0 0 80 0 80 -85 0 -85 0 0 -80z"/>
<path d="M880 290 l0 -80 80 0 80 0 0 80 0 80 -80 0 -80 0 0 -80z"/>
<path d="M1210 290 l0 -80 80 0 80 0 0 80 0 80 -80 0 -80 0 0 -80z"/>
<path d="M1540 290 l0 -80 85 0 85 0 0 80 0 80 -85 0 -85 0 0 -80z"/>
</g>
</svg>
