<?xml version="1.0" standalone="no"?>
<!DOCTYPE svg PUBLIC "-//W3C//DTD SVG 20010904//EN"
 "http://www.w3.org/TR/2001/REC-SVG-20010904/DTD/svg10.dtd">
<svg version="1.0" xmlns="http://www.w3.org/2000/svg"
 width="1024.000000pt" height="1024.000000pt" viewBox="0 0 1024.000000 1024.000000"
 preserveAspectRatio="xMidYMid meet">

<g transform="translate(0.000000,1024.000000) scale(0.100000,-0.100000)"
fill="#000000" stroke="none">
<path d="M2882 8945 c-12 -14 -24 -36 -27 -48 -3 -12 -15 -51 -25 -87 -42
-143 -51 -179 -65 -279 -31 -213 -14 -472 41 -644 13 -43 21 -83 17 -89 -3 -7
-35 -47 -69 -89 -242 -300 -358 -620 -371 -1029 -9 -300 28 -632 99 -875 32
-113 33 -115 12 -115 -180 3 -835 -11 -909 -19 -55 -6 -167 -15 -250 -21 -151
-10 -193 -15 -450 -51 -123 -17 -275 -44 -313 -55 -6 -2 -12 -8 -12 -14 0 -19
31 -23 89 -11 31 7 99 18 151 25 52 7 122 18 155 24 85 16 304 38 640 63 88 7
329 13 535 15 427 3 390 10 440 -89 41 -82 35 -87 -99 -87 -200 0 -925 -74
-1121 -115 -36 -7 -87 -16 -115 -20 -27 -3 -79 -12 -115 -20 -36 -8 -110 -24
-165 -36 -55 -11 -122 -26 -150 -34 -27 -7 -68 -16 -90 -20 -22 -4 -44 -10
-50 -15 -5 -4 -27 -10 -48 -14 -23 -4 -37 -12 -37 -22 0 -23 23 -26 71 -10 44
15 126 35 249 61 36 7 81 18 100 24 19 5 64 15 100 21 36 6 88 16 115 21 185
33 336 56 470 70 50 5 140 16 200 24 61 8 184 20 275 26 91 5 215 14 275 19
195 16 178 21 232 -62 315 -486 769 -738 1560 -868 66 -11 135 -20 152 -20 42
0 49 -18 15 -45 -123 -97 -240 -278 -274 -422 -13 -58 -35 -77 -120 -108 -126
-45 -196 -58 -341 -62 -128 -5 -155 -2 -225 17 -146 40 -293 138 -387 259 -61
78 -97 128 -97 135 0 3 -19 33 -42 67 -88 127 -288 281 -398 304 -19 4 -41 12
-48 18 -7 6 -55 11 -105 11 -113 1 -160 -20 -165 -72 -3 -27 4 -39 46 -80 26
-26 80 -69 119 -95 161 -109 301 -297 393 -527 57 -143 116 -235 209 -323 118
-111 247 -182 411 -228 78 -22 104 -24 315 -23 187 0 242 3 294 17 110 30 101
63 101 -376 0 -355 -2 -387 -20 -447 -12 -36 -29 -83 -40 -106 -29 -62 -111
-146 -173 -177 -58 -28 -117 -86 -117 -115 0 -10 16 -34 36 -53 35 -34 35 -34
124 -32 107 2 262 39 357 84 110 53 195 142 245 261 23 53 23 55 24 643 2 581
2 592 25 665 25 86 77 172 99 168 13 -3 15 -89 14 -708 0 -629 -2 -714 -18
-790 -32 -158 -70 -241 -149 -327 -34 -37 -41 -52 -45 -97 -4 -48 -2 -55 23
-74 94 -74 395 60 522 232 56 76 89 148 113 250 18 74 19 128 20 804 1 422 5
734 11 749 8 22 14 24 56 21 l48 -3 7 -76 c4 -41 8 -388 10 -770 4 -690 4
-694 27 -764 26 -80 78 -180 123 -236 93 -115 312 -229 442 -229 43 0 86 44
86 89 0 40 -12 63 -61 119 -48 55 -93 145 -121 242 -21 73 -22 92 -25 804 -2
401 -2 735 1 742 19 48 96 -94 120 -220 15 -78 17 -154 15 -615 -1 -289 2
-544 6 -566 28 -140 157 -280 307 -334 143 -52 184 -60 290 -63 l107 -3 37 37
c29 28 35 41 31 60 -9 33 -53 76 -103 100 -93 43 -175 142 -216 260 -22 62
-22 77 -28 738 -5 584 -8 684 -23 746 -19 80 -81 241 -103 265 -8 8 -14 19
-14 24 0 17 -98 127 -169 188 -39 34 -33 47 22 47 48 0 188 21 367 55 267 51
507 129 681 221 26 13 57 30 71 36 85 45 217 145 304 232 90 91 184 204 184
222 0 4 6 15 14 23 7 9 31 49 52 90 21 40 44 76 52 79 8 3 91 -1 185 -7 95 -7
255 -19 357 -26 102 -7 217 -18 255 -24 39 -6 113 -15 165 -21 131 -13 272
-35 465 -69 28 -5 79 -15 115 -21 36 -6 90 -18 120 -25 98 -24 194 -47 240
-56 25 -5 64 -17 87 -25 44 -17 73 -14 73 9 0 12 -126 57 -162 57 -9 0 -38 6
-64 14 -27 8 -94 24 -149 36 -55 11 -129 27 -165 35 -36 8 -87 17 -115 20 -27
4 -79 13 -115 20 -63 14 -113 21 -350 50 -286 34 -643 65 -788 67 -63 1 -120
7 -128 13 -13 9 -13 18 7 70 12 33 28 67 35 75 12 13 71 15 392 15 341 0 559
-9 857 -35 204 -18 322 -32 395 -45 41 -8 107 -17 145 -21 39 -4 87 -13 109
-20 54 -19 116 -18 116 1 0 9 -6 17 -12 19 -38 11 -190 38 -313 55 -253 36
-298 41 -445 51 -80 6 -197 15 -260 22 -63 6 -306 13 -539 15 -234 1 -429 7
-433 11 -5 5 -5 20 1 33 18 46 40 165 62 334 18 141 22 223 23 480 0 286 -1
319 -23 425 -45 225 -104 384 -210 563 -50 84 -160 231 -226 301 -41 43 -41
39 -11 186 36 179 30 449 -15 640 -45 190 -83 292 -114 304 -38 14 -156 4
-270 -23 -113 -28 -287 -85 -331 -109 -10 -6 -59 -30 -109 -53 -94 -44 -201
-105 -346 -196 l-87 -54 -60 16 c-290 75 -731 112 -1136 95 -125 -6 -231 -12
-235 -14 -3 -2 -51 -9 -106 -16 -99 -11 -290 -46 -415 -75 -131 -31 -114 -35
-250 52 -368 234 -700 367 -951 380 -95 5 -96 5 -117 -22z m1683 -2105 c287
-32 870 -31 1190 2 66 7 239 12 385 13 274 0 334 -6 475 -52 248 -79 480 -333
578 -631 20 -61 22 -86 22 -287 -1 -232 -12 -318 -66 -479 -109 -328 -376
-549 -779 -646 -245 -59 -630 -90 -1132 -90 -673 0 -1119 55 -1425 176 -398
157 -609 402 -690 799 -21 105 -24 141 -20 290 3 160 5 175 35 260 51 146 129
275 234 385 167 174 285 229 593 274 50 7 504 -3 600 -14z m-2070 -2242 c46
-40 23 -78 -46 -78 -34 0 -69 24 -69 47 0 14 56 53 77 53 7 0 24 -10 38 -22z
m203 -114 c57 -28 32 -79 -38 -79 -68 0 -95 51 -42 79 35 19 42 19 80 0z m147
-165 c24 -23 12 -49 -29 -63 -51 -19 -114 24 -90 61 22 36 83 37 119 2z m106
-159 c11 -6 19 -21 19 -35 0 -54 -113 -63 -134 -10 -15 39 66 71 115 45z m133
-169 c24 -26 13 -56 -25 -71 -26 -11 -36 -10 -65 3 -22 11 -34 24 -34 36 0 46
91 69 124 32z m167 -131 c58 -31 -16 -108 -76 -79 -16 8 -33 22 -39 32 -23 39
64 74 115 47z m727 -56 c46 -32 21 -74 -44 -74 -46 0 -78 28 -67 57 12 32 76
42 111 17z m-470 -48 c38 -38 -39 -91 -95 -64 -37 18 -43 60 -11 76 28 14 87
8 106 -12z m239 2 c24 -20 11 -51 -29 -66 -48 -18 -93 0 -93 38 0 44 80 63
122 28z"/>
<path d="M3964 6256 c-202 -88 -259 -483 -99 -688 91 -117 235 -129 335 -29
80 80 120 192 120 338 0 171 -76 325 -185 374 -47 22 -127 24 -171 5z"/>
<path d="M6282 6260 c-73 -30 -137 -110 -174 -218 -29 -87 -31 -249 -4 -332
49 -145 150 -240 256 -240 79 0 173 67 218 157 72 140 72 341 1 483 -31 64
-95 130 -141 147 -39 14 -124 15 -156 3z"/>
<path d="M5108 5407 c-77 -63 -37 -178 62 -177 92 1 130 115 58 175 -37 32
-84 33 -120 2z"/>
<path d="M4923 5074 c-14 -38 64 -130 141 -165 47 -21 130 -25 188 -7 72 21
170 131 155 172 -11 27 -36 18 -61 -23 -87 -138 -266 -143 -348 -10 -32 50
-63 64 -75 33z"/>
</g>
</svg>
