<?xml version="1.0" encoding="UTF-8"?>
<svg xmlns="http://www.w3.org/2000/svg" xmlns:xlink="http://www.w3.org/1999/xlink" width="434pt" height="434pt" viewBox="0 0 434 434" version="1.1">
<g id="surface1">
<path style=" stroke:none;fill-rule:nonzero;fill:rgb(0%,0%,0%);fill-opacity:1;" d="M 400.453125 120.421875 C 400.851562 100.511719 396.476562 80.378906 392.925781 60.554688 C 391.703125 53.730469 389.226562 47.136719 386.785156 40.667969 C 384.945312 35.796875 379.519531 32.695312 374.519531 33.761719 C 371.285156 34.449219 368.375 35.121094 365.554688 36.050781 C 336.027344 45.765625 308.683594 59.972656 282.417969 76.480469 C 278.886719 78.695312 273.753906 79.492188 269.496094 79.183594 C 259.300781 78.4375 249.21875 75.902344 239.03125 75.417969 C 213.820312 74.222656 188.65625 74.992188 163.667969 79.359375 C 160.195312 79.96875 155.625 79.371094 152.738281 77.503906 C 124.09375 58.96875 94.296875 43.109375 60.773438 34.203125 C 55.742188 32.863281 50.5625 33.574219 49.289062 35.570312 C 48.511719 36.792969 47.808594 38.0625 47.421875 39.421875 C 43.800781 52.144531 39.511719 64.804688 37.40625 77.800781 C 34.894531 93.3125 32.484375 109.289062 33.675781 124.78125 C 34.421875 134.515625 31.734375 140.5 26.414062 147.332031 C 8.566406 170.265625 0.527344 196.621094 0.0351562 225.523438 C -0.386719 250.238281 2.886719 274.328125 10.414062 297.957031 C 21.941406 334.164062 44.207031 361.335938 77.730469 379.015625 C 105.292969 393.546875 135.324219 399.152344 166.058594 400.230469 C 193.761719 401.199219 221.515625 400.378906 249.25 400.535156 C 277.046875 400.691406 304.460938 398.214844 331.054688 389.546875 C 357.667969 380.875 380.703125 366.882812 398.574219 344.878906 C 424.382812 313.097656 432.421875 275.660156 434.070312 236.03125 C 435.335938 205.726562 429.160156 177.21875 411.410156 152.425781 C 404.214844 142.367188 400.179688 133.726562 400.453125 120.421875 Z M 346.933594 352.636719 C 335.015625 362.945312 320.4375 367.824219 305.515625 371.390625 C 276.242188 378.386719 246.433594 380.125 216.527344 378.820312 C 186.964844 380.101562 157.742188 378.261719 128.980469 371.492188 C 107.765625 366.5 88.394531 358.109375 74.894531 339.898438 C 53.410156 310.914062 47.921875 255.757812 83.417969 225.65625 C 92.472656 217.980469 102.566406 213.109375 114.496094 212.351562 C 127.664062 211.511719 140.832031 209.871094 153.988281 210.027344 C 187.175781 210.421875 220.347656 212.074219 253.53125 212.320312 C 268.6875 212.429688 283.949219 208.898438 298.992188 209.808594 C 312.664062 210.632812 327.039062 213.152344 339.445312 218.652344 C 360.128906 227.824219 371.261719 246.421875 374.625 268.203125 C 379.636719 300.589844 373.027344 330.070312 346.933594 352.636719 Z M 346.933594 352.636719 "/>
<path style=" stroke:none;fill-rule:nonzero;fill:rgb(0%,0%,0%);fill-opacity:1;" d="M 324.488281 289.496094 C 324.488281 266.152344 310.324219 247.226562 292.855469 247.226562 C 275.386719 247.226562 261.226562 266.152344 261.226562 289.496094 C 261.226562 312.84375 275.386719 331.769531 292.855469 331.769531 C 310.324219 331.769531 324.488281 312.84375 324.488281 289.496094 Z M 324.488281 289.496094 "/>
<path style=" stroke:none;fill-rule:nonzero;fill:rgb(0%,0%,0%);fill-opacity:1;" d="M 173.570312 289.496094 C 173.570312 266.152344 159.40625 247.226562 141.933594 247.226562 C 124.464844 247.226562 110.300781 266.152344 110.300781 289.496094 C 110.300781 312.84375 124.464844 331.769531 141.933594 331.769531 C 159.40625 331.769531 173.570312 312.84375 173.570312 289.496094 Z M 173.570312 289.496094 "/>
</g>
</svg>
