<?xml version="1.0" standalone="no"?>
<!DOCTYPE svg PUBLIC "-//W3C//DTD SVG 20010904//EN"
 "http://www.w3.org/TR/2001/REC-SVG-20010904/DTD/svg10.dtd">
<svg version="1.0" xmlns="http://www.w3.org/2000/svg"
 width="250.000000pt" height="250.000000pt" viewBox="0 0 250.000000 250.000000"
 preserveAspectRatio="xMidYMid meet">

<g transform="translate(0.000000,250.000000) scale(0.100000,-0.100000)"
fill="#000000" stroke="none">
<path d="M436 2378 c-11 -17 -204 -600 -280 -845 l-7 -23 315 0 c264 0 316 2
316 14 0 33 -273 852 -288 864 -23 18 -40 15 -56 -10z"/>
<path d="M2008 2388 c-9 -7 -30 -58 -48 -112 -17 -54 -78 -244 -135 -421 -58
-177 -105 -327 -105 -334 0 -8 87 -11 315 -11 173 0 315 3 315 6 0 22 -276
853 -288 867 -18 20 -32 22 -54 5z"/>
<path d="M793 1503 c3 -5 53 -156 112 -338 262 -808 338 -1040 341 -1044 2 -2
6 -2 9 1 3 2 104 310 225 684 121 373 222 685 225 692 3 9 -92 12 -456 12
-253 0 -458 -3 -456 -7z"/>
</g>
</svg>
